{"title":"Urok.[The.Lesson].2014.DVDrip.AC3.x264-Pedotriba","uid":14130548,"size":2049178132,"categoryP":"video","categoryS":"movies","magnet":"?xt=urn:btih:ee0b6228eebb7765cc4d1a876be55f028355f24f&amp;dn=Urok.%5BThe.Lesson%5D.2014.DVDrip.AC3.x264-Pedotriba&amp;tr=udp%3A%2F%2Ftracker.leechers-paradise.org%3A6969&amp;tr=udp%3A%2F%2Fzer0day.ch%3A1337&amp;tr=udp%3A%2F%2Fopen.demonii.com%3A1337&amp;tr=udp%3A%2F%2Ftracker.coppersurfer.tk%3A6969&amp;tr=udp%3A%2F%2Fexodus.desync.com%3A6969","seeders":5,"leechers":3,"uploader":"noriegaRJ","files":1,"time":1459552595,"description":"Title: Urok aka The Lesson\r\n\r\nRelease: Urok.[The.Lesson].2014.DVDrip.AC3.x264-Pedotriba\r\n\r\n\r\nIMDB Link:                                                             \nhttp://www.imdb.com/title/tt3958072/\r\n\r\n\r\nPlot: In a small Bulgarian town Nadezhda, a young teacher, is looking for the robber in her class so she can teach him a lesson about right and wrong. But when she gets in debt to loan sharks, can she find the right way out herself?\r\n\r\n\r\nENGLISH SUBTITLE INSIDE MKV FILE.\r\n\r\n\r\nGeneral\r\nComplete name                            : Urok.[The.Lesson].2014.DVDrip.AC3.x264-Pedotriba\r\nFormat                                   : Matroska\r\nFormat version                           : Version 2\r\nFile size                                : 1.91 GiB\r\nDuration                                 : 1h 51mn\r\nOverall bit rate                         : 2 453 Kbps\r\nWriting application                      : HandBrake 6548svn 2014112401\r\nWriting library                          : Lavf55.12.0\r\n\r\nVideo\r\nID                                       : 1\r\nFormat                                   : AVC\r\nFormat/Info                              : Advanced Video Codec\r\nFormat profile                           :   \r\nFormat settings, CABAC                   : Yes\r\nFormat settings, ReFrames                : 15 frames\r\nCodec ID                                 : V_MPEG4/ISO/AVC\r\nDuration                                 : 1h 51mn\r\nBit rate                                 : 2 000 Kbps\r\nWidth                                    : 716 pixels\r\nHeight                                   : 460 pixels\r\nDisplay aspect ratio                     : 1.85:1\r\nOriginal display aspect ratio            : 1.85:1\r\nFrame rate mode                          : Constant\r\nFrame rate                               : 23.976 fps\r\nColor space                              : YUV\r\nChroma subsampling                       : 4:2:0\r\nBit depth                                : 8 bits\r\nScan type                                : Progressive\r\nBits/(Pixel*Frame)                       : 0.253\r\nStream size                              : 1.52 GiB (80%)\r\nWriting library                          : x264 core 142 r2479 dd79a61\r\nDefault                                  : Yes\r\nForced                                   : No\r\nColor primaries                          : BT.601 NTSC\r\nTransfer characteristics                 : BT.709\r\nMatrix coefficients                      : BT.601\r\n\r\nAudio\r\nID                                       : 2\r\nFormat                                   : AC-3\r\nFormat/Info                              : Audio Coding 3\r\nMode extension                           : CM (complete main)\r\nFormat settings, Endianness              : Big\r\nCodec ID                                 : A_AC3\r\nDuration                                 : 1h 51mn\r\nBit rate mode                            : Constant\r\nBit rate                                 : 448 Kbps\r\nChannel count                            : 6 channels\r\nChannel positions                        : Front: L C R, Side: L R, LFE\r\nSampling rate                            : 48.0 KHz\r\nBit depth                                : 16 bits\r\nCompression mode                         : Lossy\r\nStream size                              : 357 MiB (18%)\r\nTitle                                    : Surround\r\nLanguage                                 : Bulgarian\r\nDefault                                  : Yes\r\nForced                                   : No\r\n\r\nText\r\nID                                       : 3\r\nFormat                                   : VobSub\r\nCodec ID                                 : S_VOBSUB\r\nCodec ID/Info                            : The same subtitle format used on DVDs\r\nLanguage                                 : English\r\nDefault                                  : No\r\nForced                                   : No\r\n\r\n\r\n\r\nThanks to those helping me seed. Leechers remember, the community depends on you. If nobody shares, the freebies go away. Remember, the only reason you can download this free movie is because others are generous enough to keep sharing it with you. If nobody shares, everybody loses, so even if its for an extra hour or two after you get it, remember, others want to see it too, and they can't without you.\r\n\r\n\r\nSEE MY OTHERS UPLOADS:                                                                                     \nhttp://thepiratebay.se/user/noriegaRJ\r\n\r\nAND SEE THIS ANOTHERS UPLOADS FROM &quot;HORiZON-ArtSubs&quot;:                                     \nhttp://thepiratebay.se/user/artsubs                                     \nhttp://thepiratebay.se/user/lletaif","torrent":{"xt":"urn:btih:ee0b6228eebb7765cc4d1a876be55f028355f24f","amp;dn":"Urok.%5BThe.Lesson%5D.2014.DVDrip.AC3.x264-Pedotriba","amp;tr":["udp%3A%2F%2Ftracker.leechers-paradise.org%3A6969","udp%3A%2F%2Fzer0day.ch%3A1337","udp%3A%2F%2Fopen.demonii.com%3A1337","udp%3A%2F%2Ftracker.coppersurfer.tk%3A6969","udp%3A%2F%2Fexodus.desync.com%3A6969"],"infoHash":"ee0b6228eebb7765cc4d1a876be55f028355f24f","infoHashBuffer":{"type":"Buffer","data":[238,11,98,40,238,187,119,101,204,77,26,135,107,229,95,2,131,85,242,79]},"announce":[],"urlList":[]}}